<svg width="322" height="208" viewBox="0 0 322 208" fill="none" xmlns="http://www.w3.org/2000/svg">
<mask id="mask0_1521_2231" style="mask-type:luminance" maskUnits="userSpaceOnUse" x="0" y="0" width="322" height="208">
<path d="M321.102 0H0V207.173H321.102V0Z" fill="white"/>
</mask>
<g mask="url(#mask0_1521_2231)">
<path d="M22.6929 25.564C25.2954 19.6963 28.2327 13.9236 31.4321 8.38191L17.3394 0C13.8084 6.10214 10.5774 12.4479 7.72221 18.8889C4.79125 25.4945 2.19822 32.3311 0 39.2441L15.6592 44.0825C17.6648 37.7968 20.0272 31.5746 22.6929 25.564Z" fill="#101619"/>
<path d="M176.994 146.627H144.109C140.375 146.627 137.113 148.749 135.587 152.162C134.062 155.576 134.659 159.433 137.144 162.223L149.203 175.76C150.751 177.498 152.974 178.496 155.299 178.496H165.804C168.128 178.496 170.352 177.498 171.899 175.76L183.958 162.223C186.444 159.433 187.04 155.579 185.515 152.162C183.989 148.749 180.724 146.627 176.994 146.627Z" fill="#101619"/>
<path d="M305.446 44.0825L321.105 39.2441C318.907 32.3281 316.314 25.488 313.383 18.8889C310.528 12.4479 307.297 6.10214 303.766 0L289.673 8.38191C292.872 13.9267 295.81 19.6963 298.412 25.564C301.078 31.5776 303.44 37.7999 305.446 44.0825Z" fill="#101619"/>
<path d="M260.077 2.09725C259.765 1.34041 259.029 0.849609 258.211 0.849609H62.8846C62.0698 0.849609 61.3339 1.34041 61.0182 2.09725L8.84508 127.857C8.54506 128.578 8.65242 129.424 9.11672 130.048L61.5423 199.517C62.8406 201.243 64.5618 202.51 66.5105 203.219C68.0551 203.783 69.6027 202.389 69.1794 200.797L53.1094 140.238C52.8252 139.168 51.7357 138.525 50.6651 138.794L38.6095 141.828C37.7916 142.034 36.9326 141.707 36.4555 141.014L27.5174 128.018C27.1289 127.451 27.0531 126.726 27.3152 126.089L55.2479 58.7702C55.6996 57.6808 56.9786 57.2093 58.0271 57.7412L98.3059 78.2104C99.4303 78.7803 99.7649 80.2337 99.004 81.2406L93.5652 88.448C92.8009 89.4613 93.145 90.9242 94.2822 91.4846L105.842 97.2133C106.783 97.6818 107.213 98.7932 106.824 99.775L89.8318 142.813C89.6267 143.332 89.6457 143.914 89.8825 144.418L118.712 206.006C119.044 206.718 119.757 207.171 120.541 207.171H200.558C201.341 207.171 202.055 206.718 202.387 206.006L231.226 144.418C231.463 143.911 231.482 143.332 231.276 142.813L214.284 99.775C213.896 98.7932 214.325 97.6818 215.266 97.2133L226.826 91.4846C227.963 90.9211 228.307 89.4613 227.543 88.448L222.104 81.2406C221.343 80.2337 221.678 78.7834 222.802 78.2104L263.081 57.7412C264.129 57.2093 265.409 57.6808 265.86 58.7702L293.793 126.089C294.055 126.726 293.979 127.451 293.591 128.018L284.653 141.014C284.172 141.711 283.313 142.034 282.499 141.828L270.443 138.794C269.373 138.525 268.283 139.168 267.999 140.238L251.929 200.797C251.506 202.389 253.053 203.783 254.598 203.219C256.547 202.51 258.268 201.24 259.566 199.514L311.982 130.057C312.453 129.424 312.56 128.582 312.26 127.86L260.077 2.09725ZM257.039 42.3924L189.526 76.7092C188.594 77.1811 188.177 78.2894 188.559 79.2614L213.428 142.262C213.634 142.781 213.615 143.363 213.378 143.867L191.98 189.58C191.648 190.293 190.934 190.746 190.151 190.746H130.944C130.161 190.746 129.447 190.293 129.116 189.58L107.718 143.867C107.481 143.36 107.462 142.781 107.667 142.262L132.536 79.2614C132.922 78.2894 132.501 77.1811 131.57 76.7092L64.0563 42.3924C63.1123 41.9144 62.6985 40.7871 63.1059 39.8087L71.9333 18.5287C72.2463 17.7719 72.9819 17.2813 73.8 17.2813H247.299C248.114 17.2813 248.85 17.7719 249.165 18.5287L257.993 39.8087C258.4 40.7871 257.984 41.9144 257.042 42.3924H257.039Z" fill="#101619"/>
</g>
</svg>
