<svg width="2385" height="927" viewBox="0 0 2385 927" fill="none" xmlns="http://www.w3.org/2000/svg">
<g clip-path="url(#clip0_1325_2)">
<mask id="mask0_1325_2" style="mask-type:luminance" maskUnits="userSpaceOnUse" x="97" y="0" width="804" height="583">
<path d="M97 -4.43404e-06H901V583H97V-4.43404e-06Z" fill="white"/>
</mask>
<g mask="url(#mask0_1325_2)">
<path d="M552.612 399.707C547.939 395.026 541.548 392.405 534.93 392.405H463.067C456.448 392.405 450.065 395.026 445.384 399.707C440.703 404.379 438.082 410.769 438.082 417.387V423.997C438.082 427.424 438.082 429.247 438.31 430.843C438.652 434.376 439.678 437.689 441.281 440.88C442.079 442.362 442.991 443.843 444.928 446.7L453.485 459.472C458.5 467.116 461.129 470.877 464.435 473.734C467.398 476.127 470.825 477.95 474.587 479.09C478.69 480.344 483.371 480.344 492.497 480.344H505.499C514.625 480.344 519.306 480.344 523.41 479.09C527.171 477.95 530.598 476.127 533.562 473.734C536.867 470.877 539.489 467.116 544.512 459.472L553.068 446.7C555.006 443.843 555.918 442.362 556.723 440.88C558.319 437.689 559.345 434.376 559.687 430.843C559.915 429.247 559.915 427.424 559.915 423.997V417.387C559.915 410.769 557.286 404.379 552.612 399.707ZM552.612 399.707C547.939 395.026 541.548 392.405 534.93 392.405H463.067C456.448 392.405 450.065 395.026 445.384 399.707C440.703 404.379 438.082 410.769 438.082 417.387V423.997C438.082 427.424 438.082 429.247 438.31 430.843C438.652 434.376 439.678 437.689 441.281 440.88C442.079 442.362 442.991 443.843 444.928 446.7L453.485 459.472C458.5 467.116 461.129 470.877 464.435 473.734C467.398 476.127 470.825 477.95 474.587 479.09C478.69 480.344 483.371 480.344 492.497 480.344H505.499C514.625 480.344 519.306 480.344 523.41 479.09C527.171 477.95 530.598 476.127 533.562 473.734C536.867 470.877 539.489 467.116 544.512 459.472L553.068 446.7C555.006 443.843 555.918 442.362 556.723 440.88C558.319 437.689 559.345 434.376 559.687 430.843C559.915 429.247 559.915 427.424 559.915 423.997V417.387C559.915 410.769 557.286 404.379 552.612 399.707ZM463.067 392.405C456.448 392.405 450.065 395.026 445.384 399.707C440.703 404.379 438.082 410.769 438.082 417.387V423.997C438.082 427.424 438.082 429.247 438.31 430.843C438.652 434.376 439.678 437.689 441.281 440.88C442.079 442.362 442.991 443.843 444.928 446.7L453.485 459.472C458.5 467.116 461.129 470.877 464.435 473.734C467.398 476.127 470.825 477.95 474.587 479.09C478.69 480.344 483.371 480.344 492.497 480.344H505.499C514.625 480.344 519.306 480.344 523.41 479.09C527.171 477.95 530.598 476.127 533.562 473.734C536.867 470.877 539.489 467.116 544.512 459.472L553.068 446.7C555.006 443.843 555.918 442.362 556.723 440.88C558.319 437.689 559.345 434.376 559.687 430.843C559.915 429.247 559.915 427.424 559.915 423.997V417.387C559.915 410.769 557.286 404.379 552.612 399.707C547.939 395.026 541.548 392.405 534.93 392.405H463.067ZM707.751 118.437L570.295 208.883C558.205 216.755 552.27 220.744 548.851 226.108C545.88 230.902 544.284 236.373 544.284 241.965C544.398 248.347 547.483 254.851 553.524 267.851L608.966 386.471C612.499 394 614.209 397.883 614.893 401.758C615.463 405.299 615.463 408.832 614.779 412.251C613.981 416.133 612.157 419.894 608.396 427.31L572.916 498.366C568.236 507.833 565.842 512.506 562.308 515.933C559.231 519.01 555.462 521.289 551.358 522.771C546.678 524.374 541.434 524.374 530.94 524.374H467.056C456.562 524.374 451.312 524.374 446.638 522.771C442.535 521.289 438.766 519.01 435.688 515.933C432.155 512.506 429.753 507.833 425.08 498.366L389.601 427.31C385.84 419.894 384.016 416.133 383.218 412.251C382.534 408.832 382.534 405.185 383.096 401.758C383.788 397.883 385.498 394 389.031 386.471L444.473 267.851C450.521 254.851 453.599 248.347 453.713 241.965C453.713 236.373 452.117 230.902 449.146 226.108C445.726 220.744 439.799 216.755 427.702 208.883L290.246 118.437C286.256 115.816 284.774 110.68 286.826 106.349C293.209 92.9992 306.56 84.5655 321.386 84.5655H676.611C691.436 84.5655 704.787 92.9992 711.171 106.349C713.23 110.68 711.74 115.816 707.751 118.437ZM900.649 348.382C899.045 328.422 890.383 308.911 873.156 269.675L842.358 199.53C835.625 184.365 837.677 166.684 847.715 153.456C850.906 149.232 853.536 144.559 855.473 139.765C862.548 121.97 860.838 101.555 850.23 85.0213L813.155 27.5351C795.701 0.273545 759.765 -8.0538 732.045 8.48699C731.475 8.8289 731.019 9.05682 730.449 9.28475C722.007 13.8435 712.082 14.7629 702.5 13.3876C686.877 11.2222 667.029 11.2223 637.028 11.2223H360.968C330.968 11.2223 311.12 11.2222 295.496 13.3876C285.344 14.8769 274.729 13.7296 265.944 8.48699C238.231 -8.0538 202.296 0.273533 184.841 27.4211L147.774 85.0213C134.195 106.121 135.221 133.382 150.282 153.456C160.32 166.684 162.372 184.365 155.639 199.53L124.841 269.675C107.614 308.911 98.9513 328.422 97.3555 348.382C95.9801 365.941 98.6018 383.622 105.106 400.048C112.295 418.641 126.208 434.832 154.043 467.344L222.144 546.727C231.271 557.334 235.838 562.691 238.915 562.919C241.537 563.04 244.044 561.786 245.534 559.499C247.13 556.878 245.648 550.146 242.449 536.462L210.397 397.655C209.599 394.342 207.547 391.265 204.69 389.328C181.992 374.269 173.892 344.842 185.533 320.209L227.737 231.244C233.55 218.92 236.408 212.766 240.511 208.883C247.585 202.387 257.282 199.644 266.636 201.589C272.107 202.843 277.814 206.604 289.22 214.134L325.497 238.196C337.359 246.068 343.4 250.057 346.713 255.421C349.676 260.101 351.272 265.572 351.166 271.164C351.166 277.546 348.195 284.05 342.154 296.936L300.854 386.585C297.434 394.114 295.724 397.883 295.04 401.758C294.463 405.299 294.463 408.832 295.154 412.251C295.952 416.133 297.776 419.78 301.538 427.196L366.447 556.992C371.128 566.459 373.522 571.14 377.055 574.559C380.14 577.636 383.902 579.923 388.005 581.404C392.572 583 397.929 583 408.423 583H589.573C600.067 583 605.432 583 609.991 581.404C614.095 579.923 617.864 577.636 620.941 574.559C624.475 571.14 626.876 566.459 631.549 557.106L696.459 427.196C700.221 419.78 702.044 416.133 702.842 412.251C703.412 408.832 703.526 405.299 702.956 401.758C702.272 397.883 700.563 394.114 697.143 386.585L655.851 296.936C649.802 284.05 646.838 277.546 646.838 271.164C646.724 265.572 648.32 260.215 651.284 255.421C654.589 250.057 660.638 246.068 672.5 238.196L708.777 214.134C720.183 206.604 725.89 202.843 731.361 201.589C740.715 199.644 750.411 202.387 757.486 208.883C761.475 212.766 764.446 218.92 770.259 231.244L812.471 320.209C824.105 344.842 816.005 374.269 793.299 389.328C790.45 391.265 788.398 394.342 787.6 397.655L755.548 536.462C752.349 550.146 750.867 556.878 752.47 559.499C753.945 561.786 756.46 563.04 759.081 562.919C762.159 562.691 766.726 557.334 775.852 546.727L843.839 467.344C871.788 434.832 885.702 418.641 892.89 400.048C899.387 383.622 902.017 365.941 900.649 348.382ZM552.612 399.707C547.939 395.026 541.548 392.405 534.93 392.405H463.067C456.448 392.405 450.065 395.026 445.384 399.707C440.703 404.379 438.082 410.769 438.082 417.387V423.997C438.082 427.424 438.082 429.247 438.31 430.843C438.652 434.376 439.678 437.689 441.281 440.88C442.079 442.362 442.991 443.843 444.928 446.7L453.485 459.472C458.5 467.116 461.129 470.877 464.435 473.734C467.398 476.127 470.825 477.95 474.587 479.09C478.69 480.344 483.371 480.344 492.497 480.344H505.499C514.625 480.344 519.306 480.344 523.41 479.09C527.171 477.95 530.598 476.127 533.562 473.734C536.867 470.877 539.489 467.116 544.512 459.472L553.068 446.7C555.006 443.843 555.918 442.362 556.723 440.88C558.319 437.689 559.345 434.376 559.687 430.843C559.915 429.247 559.915 427.424 559.915 423.997V417.387C559.915 410.769 557.286 404.379 552.612 399.707ZM552.612 399.707C547.939 395.026 541.548 392.405 534.93 392.405H463.067C456.448 392.405 450.065 395.026 445.384 399.707C440.703 404.379 438.082 410.769 438.082 417.387V423.997C438.082 427.424 438.082 429.247 438.31 430.843C438.652 434.376 439.678 437.689 441.281 440.88C442.079 442.362 442.991 443.843 444.928 446.7L453.485 459.472C458.5 467.116 461.129 470.877 464.435 473.734C467.398 476.127 470.825 477.95 474.587 479.09C478.69 480.344 483.371 480.344 492.497 480.344H505.499C514.625 480.344 519.306 480.344 523.41 479.09C527.171 477.95 530.598 476.127 533.562 473.734C536.867 470.877 539.489 467.116 544.512 459.472L553.068 446.7C555.006 443.843 555.918 442.362 556.723 440.88C558.319 437.689 559.345 434.376 559.687 430.843C559.915 429.247 559.915 427.424 559.915 423.997V417.387C559.915 410.769 557.286 404.379 552.612 399.707ZM552.612 399.707C547.939 395.026 541.548 392.405 534.93 392.405H463.067C456.448 392.405 450.065 395.026 445.384 399.707C440.703 404.379 438.082 410.769 438.082 417.387V423.997C438.082 427.424 438.082 429.247 438.31 430.843C438.652 434.376 439.678 437.689 441.281 440.88C442.079 442.362 442.991 443.843 444.928 446.7L453.485 459.472C458.5 467.116 461.129 470.877 464.435 473.734C467.398 476.127 470.825 477.95 474.587 479.09C478.69 480.344 483.371 480.344 492.497 480.344H505.499C514.625 480.344 519.306 480.344 523.41 479.09C527.171 477.95 530.598 476.127 533.562 473.734C536.867 470.877 539.489 467.116 544.512 459.472L553.068 446.7C555.006 443.843 555.918 442.362 556.723 440.88C558.319 437.689 559.345 434.376 559.687 430.843C559.915 429.247 559.915 427.424 559.915 423.997V417.387C559.915 410.769 557.286 404.379 552.612 399.707ZM552.612 399.707C547.939 395.026 541.548 392.405 534.93 392.405H463.067C456.448 392.405 450.065 395.026 445.384 399.707C440.703 404.379 438.082 410.769 438.082 417.387V423.997C438.082 427.424 438.082 429.247 438.31 430.843C438.652 434.376 439.678 437.689 441.281 440.88C442.079 442.362 442.991 443.843 444.928 446.7L453.485 459.472C458.5 467.116 461.129 470.877 464.435 473.734C467.398 476.127 470.825 477.95 474.587 479.09C478.69 480.344 483.371 480.344 492.497 480.344H505.499C514.625 480.344 519.306 480.344 523.41 479.09C527.171 477.95 530.598 476.127 533.562 473.734C536.867 470.877 539.489 467.116 544.512 459.472L553.068 446.7C555.006 443.843 555.918 442.362 556.723 440.88C558.319 437.689 559.345 434.376 559.687 430.843C559.915 429.247 559.915 427.424 559.915 423.997V417.387C559.915 410.769 557.286 404.379 552.612 399.707Z" fill="black"/>
</g>
</g>
<path d="M179.376 881.14L183.884 841.534H158.768C159.412 828.654 161.022 813.842 163.92 800.962H238.624L224.456 917.526C200.628 923.966 178.732 926.864 162.632 926.864C104.028 926.864 66.998 912.052 72.794 866.006L85.674 760.39C91.148 714.344 127.534 699.532 181.308 699.532C201.916 699.532 220.914 701.142 245.708 705.328C245.708 717.886 243.454 736.562 239.912 749.12C221.236 746.222 206.102 744.934 189.036 744.934C161.988 744.934 142.346 746.222 139.126 771.338L129.144 854.414C126.246 879.53 146.854 881.14 174.546 881.14H179.376ZM391.74 857.956L410.416 703.718C423.94 702.43 454.53 702.43 464.834 703.718L444.548 867.616C439.074 911.73 405.264 926.864 355.032 926.864C299.004 926.864 264.228 911.73 269.702 867.616L289.988 703.718C303.834 702.43 331.526 702.43 345.05 703.718L326.374 857.956C323.798 877.92 339.254 880.496 357.608 880.496C374.674 880.496 389.164 877.92 391.74 857.956ZM626.438 923H473.166C472.522 910.442 475.098 889.834 478.64 877.276L581.68 748.798H496.994C497.316 735.596 499.57 716.92 502.79 703.718H651.554C651.232 716.92 648.978 735.918 645.758 749.442L542.396 877.276H631.912C632.234 889.834 629.336 910.442 626.438 923ZM807.877 923H654.605C653.961 910.442 656.537 889.834 660.079 877.276L763.119 748.798H678.433C678.755 735.596 681.009 716.92 684.229 703.718H832.993C832.671 716.92 830.417 735.918 827.197 749.442L723.835 877.276H813.351C813.673 889.834 810.775 910.442 807.877 923ZM979.335 923H843.129L869.855 703.718C886.921 702.43 909.783 702.43 924.917 703.718L903.665 878.886H984.809C984.809 891.766 982.555 910.442 979.335 923ZM1018.06 923L1029.65 830.264L979.423 703.718C995.201 702.43 1020.96 702.43 1036.74 703.718L1063.14 787.76L1110.8 703.718C1126.25 702.43 1151.05 702.43 1166.5 703.718L1084.39 830.264L1073.12 923C1057.99 924.288 1033.84 924.288 1018.06 923ZM1235.57 923L1262.61 703.718C1278.71 702.43 1302.54 702.43 1317.68 703.718L1290.63 923C1275.49 924.288 1251.67 924.288 1235.57 923ZM1483.71 849.262L1480.49 875.022C1475.66 912.696 1446.36 926.864 1398.7 926.864C1378.1 926.864 1351.37 925.576 1326.9 922.034C1326.9 909.476 1329.15 889.19 1332.69 876.632C1359.74 879.852 1381.32 881.462 1399.67 881.462C1414.16 881.462 1425.75 879.852 1427.04 867.294L1428.01 856.346C1429.29 844.432 1427.04 843.466 1407.72 837.026L1364.57 822.536C1350.08 817.706 1340.42 807.08 1344.61 774.558L1347.51 751.374C1352.01 713.056 1383.89 699.532 1429.94 699.532C1452.48 699.532 1472.12 700.82 1498.85 706.616C1499.17 718.852 1496.91 738.172 1493.05 750.408C1466.97 745.9 1449.58 744.612 1429.62 744.612C1413.52 744.612 1402.89 745.578 1400.96 758.78L1399.67 767.796C1398.06 778.1 1401.6 779.71 1420.6 786.472L1464.07 801.606C1479.2 807.08 1487.58 816.74 1483.71 849.262ZM1552.9 923L1574.48 747.832H1516.19C1515.87 734.952 1518.45 716.92 1521.67 703.718H1693.29C1692.97 716.92 1690.72 734.952 1687.5 747.832H1629.22L1607.96 923C1592.83 924.288 1569 924.288 1552.9 923ZM1877.42 881.14L1881.93 841.534H1856.81C1857.46 828.654 1859.07 813.842 1861.97 800.962H1936.67L1922.5 917.526C1898.67 923.966 1876.78 926.864 1860.68 926.864C1802.07 926.864 1765.04 912.052 1770.84 866.006L1783.72 760.39C1789.19 714.344 1825.58 699.532 1879.35 699.532C1899.96 699.532 1918.96 701.142 1943.75 705.328C1943.75 717.886 1941.5 736.562 1937.96 749.12C1919.28 746.222 1904.15 744.934 1887.08 744.934C1860.03 744.934 1840.39 746.222 1837.17 771.338L1827.19 854.414C1824.29 879.53 1844.9 881.14 1872.59 881.14H1877.42ZM2099.77 923H1961.95L1988.68 703.718H2126.49C2126.49 716.92 2124.24 734.63 2121.02 747.51H2038.27L2033.11 791.302H2112.65C2112.65 803.86 2110.39 821.892 2107.17 834.772H2027.96L2022.49 878.886H2105.24C2105.24 891.766 2102.99 910.442 2099.77 923ZM2138.68 923L2165.72 703.718C2181.82 702.43 2205.65 702.43 2220.79 703.718L2193.74 923C2178.6 924.288 2154.78 924.288 2138.68 923ZM2373.62 923H2237.41L2264.14 703.718C2281.21 702.43 2304.07 702.43 2319.2 703.718L2297.95 878.886H2379.09C2379.09 891.766 2376.84 910.442 2373.62 923Z" fill="black"/>
<path d="M1407.21 459.34L1418.16 363.154H1357.16C1358.73 331.874 1362.64 295.902 1369.67 264.622H1551.1L1516.69 547.706C1458.82 563.346 1405.65 570.384 1366.55 570.384C1224.22 570.384 1134.29 534.412 1148.37 422.586L1179.65 166.09C1192.94 54.264 1281.31 18.292 1411.9 18.292C1461.95 18.292 1508.09 22.202 1568.3 32.368C1568.3 62.866 1562.83 108.222 1554.23 138.72C1508.87 131.682 1472.12 128.554 1430.67 128.554C1364.98 128.554 1317.28 131.682 1309.46 192.678L1285.22 394.434C1278.18 455.43 1328.23 459.34 1395.48 459.34H1407.21ZM1612.5 561L1678.19 28.458C1717.29 25.33 1775.15 25.33 1811.91 28.458L1746.22 561C1709.47 564.128 1651.6 564.128 1612.5 561ZM2118.95 459.34L2129.9 363.154H2068.9C2070.47 331.874 2074.38 295.902 2081.42 264.622H2262.84L2228.43 547.706C2170.56 563.346 2117.39 570.384 2078.29 570.384C1935.96 570.384 1846.03 534.412 1860.11 422.586L1891.39 166.09C1904.68 54.264 1993.05 18.292 2123.64 18.292C2173.69 18.292 2219.83 22.202 2280.04 32.368C2280.04 62.866 2274.57 108.222 2265.97 138.72C2220.61 131.682 2183.86 128.554 2142.41 128.554C2076.72 128.554 2029.02 131.682 2021.2 192.678L1996.96 394.434C1989.92 455.43 2039.97 459.34 2107.22 459.34H2118.95Z" fill="black"/>
<defs>
<clipPath id="clip0_1325_2">
<rect width="804" height="583" fill="white" transform="translate(97)"/>
</clipPath>
</defs>
</svg>
