<svg width="1438" height="225" viewBox="0 0 1438 225" fill="none" xmlns="http://www.w3.org/2000/svg">
<g clip-path="url(#clip0_802_2)">
<mask id="mask0_802_2" style="mask-type:luminance" maskUnits="userSpaceOnUse" x="0" y="-1" width="1438" height="226">
<path d="M0 -0.00392151H1438V225H0V-0.00392151Z" fill="white"/>
</mask>
<g mask="url(#mask0_802_2)">
<path d="M503.617 142.661H479.378C480.005 130.236 481.553 115.94 484.355 103.516H556.435L542.758 215.983C519.763 222.196 498.64 224.998 483.111 224.998C426.58 224.998 390.849 210.702 396.444 166.275L408.867 64.3705C414.148 19.944 449.252 5.65768 501.129 5.65768C521.007 5.65768 539.338 7.20587 563.264 11.2429C563.264 23.3539 561.079 41.3832 557.679 53.4942C539.652 50.7016 525.054 49.4572 508.594 49.4572C482.494 49.4572 463.546 50.7016 460.43 74.9334L450.799 155.095C448.007 179.327 467.896 180.875 494.604 180.875H499.267L503.617 142.661Z" fill="#101619"/>
<path d="M720.461 9.69073C733.511 8.44632 763.021 8.44632 772.955 9.69073L753.39 167.829C748.109 210.394 715.484 225.004 667.026 225.004C612.974 225.004 579.418 210.394 584.708 167.829L604.274 9.69073C617.628 8.44632 644.345 8.44632 657.395 9.69073L639.388 158.511C636.899 177.765 651.801 180.254 669.515 180.254C685.974 180.254 699.955 177.765 702.434 158.511L720.461 9.69073Z" fill="#101619"/>
<path d="M776.414 221.268C775.787 209.157 778.265 189.266 781.694 177.145L881.108 53.1834H799.398C799.712 40.4453 801.887 22.4258 804.983 9.68768H948.514C948.201 22.4258 946.026 40.7589 942.92 53.8007L843.193 177.145H929.556C929.87 189.266 927.078 209.157 924.276 221.268H776.414Z" fill="#101619"/>
<path d="M945.781 221.268C945.174 209.157 947.653 189.266 951.062 177.145L1050.48 53.1834H968.786C969.089 40.4453 971.264 22.4258 974.37 9.68768H1117.88C1117.58 22.4258 1115.39 40.7589 1112.3 53.8007L1012.58 177.145H1098.94C1099.25 189.266 1096.46 209.157 1093.66 221.268H945.781Z" fill="#101619"/>
<path d="M1124.01 221.268L1149.81 9.68768C1166.26 8.44327 1188.32 8.44327 1202.93 9.68768L1182.41 178.703H1260.69C1260.69 191.137 1258.53 209.157 1255.41 221.268H1124.01Z" fill="#101619"/>
<path d="M1305.98 131.79L1257.52 9.68993C1272.73 8.44551 1297.59 8.44551 1312.82 9.68993L1338.29 90.7728L1384.26 9.68993C1399.18 8.44551 1423.1 8.44551 1438.01 9.68993L1358.79 131.79L1347.91 221.27C1333.31 222.514 1310.01 222.514 1294.79 221.27L1305.98 131.79Z" fill="#101619"/>
<path d="M152.518 150.804H166.146C168.664 150.804 171.074 151.803 172.857 153.587C174.641 155.37 175.64 157.78 175.64 160.299V162.797C175.64 164.11 175.64 164.777 175.562 165.414C175.415 166.727 175.023 168.01 174.425 169.186C174.131 169.764 173.769 170.313 173.034 171.4L169.801 176.26C167.871 179.161 166.901 180.611 165.627 181.659C164.5 182.581 163.197 183.286 161.796 183.707C160.209 184.188 158.465 184.188 154.987 184.188H153.968C153.449 184.188 152.969 184.188 152.518 184.178C152.067 184.188 151.587 184.188 151.068 184.188H150.049C146.571 184.188 144.827 184.188 143.24 183.707C141.849 183.276 140.546 182.581 139.409 181.65C138.136 180.601 137.166 179.151 135.236 176.26L132.002 171.4C131.268 170.313 130.905 169.754 130.611 169.186C130.014 168 129.622 166.727 129.475 165.414C129.396 164.767 129.396 164.11 129.396 162.797V160.299C129.396 157.78 130.396 155.36 132.179 153.587C133.962 151.803 136.372 150.804 138.89 150.804H152.518ZM85.1023 33.9563C79.508 33.9563 74.4134 37.18 72.0229 42.236C71.2489 43.8724 71.7975 45.8223 73.2965 46.812L125.477 81.1362C130.043 84.1346 132.326 85.6338 133.609 87.6817C134.746 89.4846 135.333 91.5815 135.314 93.7078C135.294 96.128 134.138 98.5973 131.826 103.546L110.791 148.57C109.449 151.431 108.783 152.862 108.528 154.351C108.303 155.674 108.322 157.026 108.587 158.339C108.871 159.828 109.576 161.239 110.997 164.061L124.478 191.037C126.261 194.603 127.153 196.396 128.485 197.7C129.661 198.856 131.081 199.728 132.649 200.267C134.403 200.874 136.401 200.874 140.399 200.874H164.637C168.635 200.874 170.633 200.884 172.387 200.277C173.955 199.738 175.375 198.856 176.551 197.7C177.883 196.396 178.775 194.613 180.558 191.037L194.039 164.071C195.46 161.239 196.165 159.828 196.45 158.339C196.714 157.026 196.734 155.674 196.508 154.351C196.254 152.862 195.587 151.431 194.245 148.57L173.21 103.555C170.898 98.607 169.742 96.128 169.722 93.7078C169.703 91.5815 170.291 89.4846 171.427 87.6817C172.71 85.6338 174.993 84.1346 179.559 81.1362L231.73 46.812C233.239 45.8223 233.787 43.8724 233.013 42.2458C230.623 37.1898 225.528 33.9563 219.934 33.9563H85.1023ZM33.3134 12.3015C39.9462 1.98363 53.5548 -1.2009 64.0772 5.08977C67.4181 7.08867 71.435 7.4904 75.2854 6.96129C81.2324 6.1382 88.7666 6.13821 100.151 6.13821H152.518H204.885C216.27 6.13821 223.794 6.1382 229.751 6.96129C233.601 7.4904 237.618 7.08867 240.959 5.08977C251.481 -1.2009 265.09 1.99342 271.723 12.3015L285.772 34.1326C290.916 42.1381 290.543 52.5049 284.822 60.0988C281.03 65.145 280.256 71.8374 282.794 77.6088L294.502 104.231C301.046 119.096 304.319 126.533 304.906 134.088C305.426 140.76 304.426 147.463 301.997 153.704C299.253 160.749 293.963 166.922 283.391 179.259L257.575 209.38C254.117 213.407 252.393 215.425 251.227 215.504C250.218 215.572 249.248 215.082 248.699 214.23C248.072 213.24 248.67 210.653 249.865 205.48L262.014 152.813C262.307 151.519 263.091 150.392 264.198 149.657C272.791 143.925 275.887 132.755 271.468 123.417L255.469 89.6316C253.245 84.9479 252.138 82.606 250.59 81.1559C247.935 78.6768 244.231 77.648 240.685 78.4025C238.608 78.8434 236.442 80.274 232.132 83.1449L218.347 92.287C213.83 95.2853 211.577 96.7845 210.303 98.8226C209.176 100.606 208.588 102.683 208.608 104.8C208.618 107.2 209.754 109.66 212.018 114.579L227.693 148.599C229.006 151.451 229.663 152.881 229.908 154.361C230.133 155.674 230.104 157.016 229.849 158.329C229.555 159.799 228.849 161.21 227.448 164.012L202.818 213.289C201.025 216.866 200.133 218.649 198.801 219.962C197.625 221.108 196.205 221.99 194.647 222.529C192.883 223.137 190.885 223.137 186.897 223.137H152.518H118.139C114.152 223.137 112.153 223.137 110.389 222.519C108.832 221.99 107.411 221.108 106.235 219.952C104.903 218.649 104.011 216.866 102.218 213.289L77.5878 164.012C76.1867 161.21 75.4813 159.799 75.1874 158.329C74.9327 157.016 74.9131 155.674 75.1286 154.361C75.3735 152.881 76.03 151.451 77.3428 148.599L93.0186 114.579C95.2818 109.66 96.4183 107.2 96.4281 104.8C96.4477 102.683 95.8599 100.606 94.7332 98.8128C93.4595 96.7845 91.2061 95.2853 86.6895 92.287L72.9046 83.1351C68.5938 80.274 66.4285 78.8434 64.3515 78.4025C60.8049 77.648 57.1014 78.6768 54.4464 81.1559C52.8984 82.606 51.7913 84.9479 49.5673 89.6316L33.5681 123.407C29.1495 132.755 32.2455 143.925 40.8378 149.657C41.9449 150.392 42.7287 151.519 43.0226 152.813L55.1811 205.48C56.3666 210.653 56.9643 213.24 56.3372 214.23C55.7886 215.082 54.8284 215.562 53.8193 215.504C52.6436 215.425 50.9193 213.407 47.4608 209.38L21.6447 179.259C11.0734 166.922 5.78279 160.749 3.03952 153.694C0.609774 147.463 -0.389558 140.751 0.129703 134.078C0.717546 126.533 3.98987 119.096 10.5345 104.222L22.2424 77.6088C24.7799 71.8374 24.0059 65.1352 20.2143 60.0988C14.4927 52.4951 14.1106 42.1381 19.264 34.1326L33.3134 12.3015Z" fill="#101619"/>
</g>
</g>
<defs>
<clipPath id="clip0_802_2">
<rect width="1438" height="225" fill="white"/>
</clipPath>
</defs>
</svg>
